<svg version="1.1" xmlns="http://www.w3.org/2000/svg" xmlns:xlink="http://www.w3.org/1999/xlink" width="748" height="464"><defs/><g><g transform="translate(-134,-158) scale(1,1)"><rect fill="#C0C0C0" stroke="none" x="215" y="175" width="265.6" height="15" opacity="0.2"/></g><g transform="translate(-134,-158) scale(1,1)"><rect fill="#C0C0C0" stroke="none" x="215" y="189" width="664" height="146" opacity="0.2"/></g><g transform="translate(-134,-158) scale(1,1)"><rect fill="#ffffff" stroke="none" x="208" y="183" width="664" height="145"/></g><g transform="translate(-134,-158) scale(1,1)"><path fill="none" stroke="#000000" d="M 208 183 L 872 183 L 872 328 L 208 328 L 208 183 Z Z" stroke-miterlimit="10"/></g><g transform="translate(-134,-158) scale(1,1)"><rect fill="#ffffff" stroke="none" x="208" y="168" width="265.6" height="15"/></g><g transform="translate(-134,-158) scale(1,1)"><path fill="none" stroke="#000000" d="M 208 168 L 473.6 168 L 473.6 183 L 208 183 L 208 168 Z Z" stroke-miterlimit="10"/></g><g transform="translate(-134,-158) scale(1,1)"><rect fill="#ffffff" stroke="none" x="208" y="182" width="664" height="146"/></g><g transform="translate(-134,-158) scale(1,1)"><path fill="none" stroke="#000000" d="M 208 182 L 872 182 L 872 328 L 208 328 L 208 182 Z Z" stroke-miterlimit="10"/></g><g transform="translate(-134,-158) scale(1,1)"><g><path fill="none" stroke="none"/><text fill="#000000" stroke="none" font-family="Arial" font-size="13px" font-style="normal" font-weight="bold" text-decoration="none" x="485.8874969482422" y="202.5">Android 제공 클래스</text></g></g><g transform="translate(-134,-158) scale(1,1)"><rect fill="#C0C0C0" stroke="none" x="463" y="575" width="110" height="44" opacity="0.2"/></g><g transform="translate(-134,-158) scale(1,1)"><rect fill="#ffffff" stroke="none" x="456" y="568" width="110" height="44"/></g><g transform="translate(-134,-158) scale(1,1)"><path fill="none" stroke="#000000" d="M 456 568 L 566 568 L 566 612 L 456 612 L 456 568 Z Z" stroke-miterlimit="10"/></g><g transform="translate(-134,-158) scale(1,1)"><path fill="none" stroke="#000000" d="M 456 593 L 566 593" stroke-miterlimit="10"/></g><g transform="translate(-134,-158) scale(1,1)"><path fill="none" stroke="#000000" d="M 456 603 L 566 603" stroke-miterlimit="10"/></g><g transform="translate(-134,-158) scale(1,1)"><g><path fill="none" stroke="none"/><text fill="#000000" stroke="none" font-family="Arial" font-size="13px" font-style="normal" font-weight="bold" text-decoration="none" x="463.5" y="587.5">CalendarActivity</text></g></g><g transform="translate(-134,-158) scale(1,1)"><rect fill="#C0C0C0" stroke="none" x="615" y="263" width="93.03662109375" height="44" opacity="0.2"/></g><g transform="translate(-134,-158) scale(1,1)"><rect fill="#ffffff" stroke="none" x="608" y="256" width="93.03662109375" height="44"/></g><g transform="translate(-134,-158) scale(1,1)"><path fill="none" stroke="#000000" d="M 608 256 L 701.03662109375 256 L 701.03662109375 300 L 608 300 L 608 256 Z Z" stroke-miterlimit="10"/></g><g transform="translate(-134,-158) scale(1,1)"><path fill="none" stroke="#000000" d="M 608 281 L 701.03662109375 281" stroke-miterlimit="10"/></g><g transform="translate(-134,-158) scale(1,1)"><path fill="none" stroke="#000000" d="M 608 291 L 701.03662109375 291" stroke-miterlimit="10"/></g><g transform="translate(-134,-158) scale(1,1)"><g><path fill="none" stroke="none"/><text fill="#000000" stroke="none" font-family="Arial" font-size="13px" font-style="italic" font-weight="bold" text-decoration="none" x="615.28662109375" y="275.5">BaseAdapter</text></g></g><g transform="translate(-134,-158) scale(1,1)"><rect fill="#C0C0C0" stroke="none" x="559" y="359" width="231" height="100" opacity="0.2"/></g><g transform="translate(-134,-158) scale(1,1)"><rect fill="#ffffff" stroke="none" x="552" y="352" width="231" height="100"/></g><g transform="translate(-134,-158) scale(1,1)"><path fill="none" stroke="#000000" d="M 552 352 L 783 352 L 783 452 L 552 452 L 552 352 Z Z" stroke-miterlimit="10"/></g><g transform="translate(-134,-158) scale(1,1)"><path fill="none" stroke="#000000" d="M 552 377 L 783 377" stroke-miterlimit="10"/></g><g transform="translate(-134,-158) scale(1,1)"><path fill="none" stroke="#000000" d="M 552 400 L 783 400" stroke-miterlimit="10"/></g><g transform="translate(-134,-158) scale(1,1)"><g><path fill="none" stroke="none"/><text fill="#000000" stroke="none" font-family="Arial" font-size="13px" font-style="normal" font-weight="bold" text-decoration="none" x="619.5" y="371.5">CalendarAdapter</text></g></g><g transform="translate(-134,-158) scale(1,1)"><g><path fill="none" stroke="none"/><text fill="#000000" stroke="none" font-family="Arial" font-size="13px" font-style="normal" font-weight="normal" text-decoration="none" x="557" y="394.5">-mList: List&lt;Calendar&gt;</text></g></g><g transform="translate(-134,-158) scale(1,1)"><g><path fill="none" stroke="none"/><text fill="#000000" stroke="none" font-family="Arial" font-size="13px" font-style="normal" font-weight="normal" text-decoration="none" x="557" y="417.5">+CalendarAdapter(Context, mList)</text></g></g><g transform="translate(-134,-158) scale(1,1)"><g><path fill="none" stroke="none"/><text fill="#000000" stroke="none" font-family="Arial" font-size="13px" font-style="normal" font-weight="normal" text-decoration="none" x="557" y="432.5">+nextMonth()</text></g></g><g transform="translate(-134,-158) scale(1,1)"><g><path fill="none" stroke="none"/><text fill="#000000" stroke="none" font-family="Arial" font-size="13px" font-style="normal" font-weight="normal" text-decoration="none" x="557" y="447.5">+prevMonth()</text></g></g><g transform="translate(-134,-158) scale(1,1)"><path fill="none" stroke="#000000" d="M 662 351 L 656 301" stroke-miterlimit="10"/></g><g transform="translate(-134,-158) scale(1,1)"><path fill="#FFFFFF" stroke="none" d="M 666.7807336382655 320.17748112294134 L 656 301 L 650.0626029136746 322.1836568098922"/></g><g transform="translate(-134,-158) scale(1,1)"><path fill="none" stroke="#000000" d="M 666.7807336382655 320.17748112294134 L 656 301 L 650.0626029136746 322.1836568098922 L 666.7807336382655 320.17748112294134" stroke-miterlimit="10"/></g><g transform="translate(-134,-158) scale(1,1)"><path fill="none" stroke="#000000" d="M 530 567 L 625 453" stroke-miterlimit="10"/></g><g transform="translate(-134,-158) scale(1,1)"><path fill="none" stroke="#000000" d="M 621.727855214301 463.50205068076815 L 625 453 L 615.260172980272 458.11231548574403" stroke-miterlimit="10"/></g><g transform="translate(-134,-158) scale(1,1)"><g><path fill="none" stroke="none"/><text fill="#000000" stroke="none" font-family="Arial" font-size="13px" font-style="normal" font-weight="normal" text-decoration="none" x="510" y="507">-mCalendarAdapter</text></g></g><g transform="translate(-134,-158) scale(1,1)"><rect fill="#C0C0C0" stroke="none" x="367" y="367" width="94" height="57" opacity="0.2"/></g><g transform="translate(-134,-158) scale(1,1)"><rect fill="#ffffff" stroke="none" x="360" y="360" width="94" height="57"/></g><g transform="translate(-134,-158) scale(1,1)"><path fill="none" stroke="#000000" d="M 360 360 L 454 360 L 454 417 L 360 417 L 360 360 Z Z" stroke-miterlimit="10"/></g><g transform="translate(-134,-158) scale(1,1)"><path fill="none" stroke="#000000" d="M 360 385 L 454 385" stroke-miterlimit="10"/></g><g transform="translate(-134,-158) scale(1,1)"><path fill="none" stroke="#000000" d="M 360 395 L 454 395" stroke-miterlimit="10"/></g><g transform="translate(-134,-158) scale(1,1)"><g><path fill="none" stroke="none"/><text fill="#000000" stroke="none" font-family="Arial" font-size="13px" font-style="normal" font-weight="bold" text-decoration="none" x="367.5" y="379.5">CalendarView</text></g></g><g transform="translate(-134,-158) scale(1,1)"><path fill="none" stroke="#000000" d="M 408 359 L 409 301" stroke-miterlimit="10"/></g><g transform="translate(-134,-158) scale(1,1)"><path fill="#FFFFFF" stroke="none" d="M 417.0673994586762 321.4674635940595 L 409 301 L 400.2318305627224 321.1771951648189"/></g><g transform="translate(-134,-158) scale(1,1)"><path fill="none" stroke="#000000" d="M 417.0673994586762 321.4674635940595 L 409 301 L 400.2318305627224 321.1771951648189 L 417.0673994586762 321.4674635940595" stroke-miterlimit="10"/></g><g transform="translate(-134,-158) scale(1,1)"><path fill="none" stroke="#000000" d="M 499 567 L 422 418" stroke-miterlimit="10"/></g><g transform="translate(-134,-158) scale(1,1)"><path fill="none" stroke="#000000" d="M 430.40534265198653 425.0957885328338 L 422 418 L 422.9259945979837 428.9609549768487" stroke-miterlimit="10"/></g><g transform="translate(-134,-158) scale(1,1)"><g><path fill="none" stroke="none"/><text fill="#000000" stroke="none" font-family="Arial" font-size="13px" font-style="normal" font-weight="normal" text-decoration="none" x="399" y="505">-mCalendarView</text></g></g><g transform="translate(-134,-158) scale(1,1)"><path fill="none" stroke="#000000" d="M 709 351 L 749 301" stroke-miterlimit="10"/></g><g transform="translate(-134,-158) scale(1,1)"><path fill="none" stroke="#000000" d="M 745.9385084650058 311.5653807116052 L 749 301 L 739.3643462280668 306.306050922054" stroke-miterlimit="10"/></g><g transform="translate(-134,-158) scale(1,1)"><path fill="#ffffff" stroke="none" d="M 144 360 L 301 360 L 311 370 L 311 415 L 144 415 L 144 360"/></g><g transform="translate(-134,-158) scale(1,1)"><path fill="none" stroke="#000000" d="M 144 360 L 301 360 L 311 370 L 311 415 L 144 415 L 144 360 L 144 360" stroke-miterlimit="10"/></g><g transform="translate(-134,-158) scale(1,1)"><path fill="none" stroke="#000000" d="M 301 360 L 301 370 L 311 370 L 301 360" stroke-miterlimit="10"/></g><g transform="translate(-134,-158) scale(1,1)"><g><path fill="none" stroke="none"/><text fill="#000000" stroke="none" font-family="Arial" font-size="13px" font-style="normal" font-weight="normal" text-decoration="none" x="149" y="378">백그라운드 색상 : 다크 그레이</text></g></g><g transform="translate(-134,-158) scale(1,1)"><g><path fill="none" stroke="none"/><text fill="#000000" stroke="none" font-family="Arial" font-size="13px" font-style="normal" font-weight="normal" text-decoration="none" x="149" y="393">컬럼수 : 7</text></g></g><g transform="translate(-134,-158) scale(1,1)"><path fill="none" stroke="#000000" d="M 359 388 L 313 388" stroke-miterlimit="10" stroke-dasharray="3"/></g><g transform="translate(-134,-158) scale(1,1)"><rect fill="#C0C0C0" stroke="none" x="743" y="263" width="64" height="44" opacity="0.2"/></g><g transform="translate(-134,-158) scale(1,1)"><rect fill="#ffffff" stroke="none" x="736" y="256" width="64" height="44"/></g><g transform="translate(-134,-158) scale(1,1)"><path fill="none" stroke="#000000" d="M 736 256 L 800 256 L 800 300 L 736 300 L 736 256 Z Z" stroke-miterlimit="10"/></g><g transform="translate(-134,-158) scale(1,1)"><path fill="none" stroke="#000000" d="M 736 281 L 800 281" stroke-miterlimit="10"/></g><g transform="translate(-134,-158) scale(1,1)"><path fill="none" stroke="#000000" d="M 736 291 L 800 291" stroke-miterlimit="10"/></g><g transform="translate(-134,-158) scale(1,1)"><g><path fill="none" stroke="none"/><text fill="#000000" stroke="none" font-family="Arial" font-size="13px" font-style="normal" font-weight="bold" text-decoration="none" x="742.5" y="275.5">Calendar</text></g></g><g transform="translate(-134,-158) scale(1,1)"><rect fill="#C0C0C0" stroke="none" x="383" y="263" width="66" height="44" opacity="0.2"/></g><g transform="translate(-134,-158) scale(1,1)"><rect fill="#ffffff" stroke="none" x="376" y="256" width="66" height="44"/></g><g transform="translate(-134,-158) scale(1,1)"><path fill="none" stroke="#000000" d="M 376 256 L 442 256 L 442 300 L 376 300 L 376 256 Z Z" stroke-miterlimit="10"/></g><g transform="translate(-134,-158) scale(1,1)"><path fill="none" stroke="#000000" d="M 376 281 L 442 281" stroke-miterlimit="10"/></g><g transform="translate(-134,-158) scale(1,1)"><path fill="none" stroke="#000000" d="M 376 291 L 442 291" stroke-miterlimit="10"/></g><g transform="translate(-134,-158) scale(1,1)"><g><path fill="none" stroke="none"/><text fill="#000000" stroke="none" font-family="Arial" font-size="13px" font-style="normal" font-weight="bold" text-decoration="none" x="383" y="275.5">GridView</text></g></g></g></svg>